<?xml version="1.0" standalone="no"?>
<!DOCTYPE svg PUBLIC "-//W3C//DTD SVG 20010904//EN"
 "http://www.w3.org/TR/2001/REC-SVG-20010904/DTD/svg10.dtd">
<svg version="1.0" xmlns="http://www.w3.org/2000/svg"
 width="765.000000pt" height="326.000000pt" viewBox="0 0 765.000000 326.000000"
 preserveAspectRatio="xMidYMid meet">

<g transform="translate(0.000000,326.000000) scale(0.100000,-0.100000)"
fill="#000000" stroke="none">
<path d="M2544 3004 c-82 -52 -171 -108 -199 -125 -27 -17 -72 -46 -100 -64
-112 -73 -226 -145 -230 -145 -3 0 -5 16 -5 36 0 30 -9 45 -54 90 l-54 54
-221 0 -221 0 -2 -266 -3 -267 -68 -46 c-37 -25 -86 -58 -110 -72 -112 -69
-288 -183 -293 -190 -2 -5 27 -47 67 -93 l71 -85 54 34 c30 19 57 35 59 35 3
0 5 -49 5 -110 0 -67 4 -110 10 -110 6 0 10 47 10 120 l0 120 90 57 c50 32
164 105 253 163 258 166 362 234 509 328 183 117 361 232 487 314 57 37 108
68 113 68 5 0 88 -52 186 -116 234 -154 432 -283 687 -449 44 -29 152 -99 240
-157 88 -57 197 -128 243 -158 l82 -54 0 -123 c0 -158 18 -165 22 -8 l3 115
45 -30 c25 -16 50 -30 57 -30 12 0 103 114 103 129 0 5 -42 37 -92 70 -51 33
-113 74 -138 91 -48 33 -1427 951 -1446 962 -5 4 -77 -36 -160 -88z m-656
-296 l-3 -121 -130 -84 c-71 -46 -163 -103 -202 -128 l-73 -45 0 250 0 250
205 0 206 0 -3 -122z m64 55 c23 -22 28 -35 28 -73 0 -40 -4 -48 -29 -63 -16
-9 -32 -17 -35 -17 -3 0 -6 41 -6 90 0 50 3 90 7 90 4 0 20 -12 35 -27z"/>
<path d="M2900 3004 c80 -53 166 -111 191 -128 26 -17 95 -64 155 -104 60 -40
152 -100 204 -135 52 -34 109 -72 125 -84 53 -37 815 -542 833 -552 12 -6 51
-5 113 4 155 22 353 56 372 63 14 6 -37 46 -224 177 -133 94 -265 186 -293
207 -28 20 -100 71 -161 113 -60 42 -135 94 -165 116 -30 22 -66 48 -80 57
-14 9 -100 69 -190 133 l-165 116 -280 37 c-154 21 -334 44 -400 52 -66 8
-133 17 -150 20 -20 4 19 -27 115 -92z"/>
<path d="M2416 2542 c-5 -9 -7 -157 -7 -399 l1 -133 294 0 c259 0 295 2 300
16 11 28 7 484 -4 505 -10 18 -24 19 -295 19 -156 0 -286 -4 -289 -8z m272
-139 l3 -113 -126 0 -125 0 0 115 0 116 123 -3 122 -3 3 -112z m282 2 l0 -116
-127 3 -128 3 -3 99 c-1 55 0 106 2 113 4 10 36 13 131 13 l125 0 0 -115z
m-280 -255 l0 -110 -125 0 -125 0 0 110 0 110 125 0 125 0 0 -110z m280 0 l0
-111 -127 3 -128 3 -3 94 c-1 52 -1 100 2 108 4 10 36 13 131 13 l125 0 0
-110z"/>
<path d="M4795 2016 c-38 -7 -139 -23 -222 -36 l-153 -24 -46 -59 c-25 -32
-44 -61 -41 -63 2 -2 91 12 198 32 107 19 209 38 227 41 l32 6 0 -122 c0 -79
4 -120 10 -116 6 4 10 56 10 122 l0 116 51 59 c57 66 58 65 -66 44z"/>
<path d="M2810 1706 c-25 -6 -72 -28 -105 -48 -175 -107 -281 -259 -345 -498
-65 -243 31 -562 221 -734 113 -102 218 -112 381 -36 206 95 341 261 388 475
34 154 21 394 -29 537 -26 77 -130 232 -145 218 -3 -3 10 -44 29 -90 59 -149
87 -404 61 -562 -25 -155 -71 -249 -160 -331 -78 -73 -212 -124 -297 -114
-141 17 -278 165 -315 339 -33 152 -8 326 67 487 43 92 131 191 202 227 133
68 234 68 346 -2 39 -24 71 -42 71 -39 0 21 -47 89 -82 119 -71 61 -182 81
-288 52z"/>
<path d="M1185 1639 c-124 -13 -143 -18 -150 -39 -3 -11 -4 -24 -1 -29 8 -12
95 -31 154 -32 26 -1 59 -4 74 -8 l26 -6 -33 -95 c-40 -115 -155 -442 -225
-640 -136 -385 -138 -396 -90 -494 20 -43 25 -47 53 -44 42 4 60 38 96 179 30
119 116 404 129 428 5 8 30 20 57 27 56 14 37 24 216 -112 289 -218 784 -516
999 -600 96 -39 140 -44 140 -16 0 27 -82 114 -141 148 -513 300 -767 464
-963 626 l-29 24 109 38 c60 21 144 51 186 67 43 16 83 29 90 29 22 0 275 107
342 144 73 41 116 86 116 121 0 56 -153 160 -317 216 -120 40 -219 57 -420 69
-194 11 -301 11 -418 -1z m587 -150 c155 -21 251 -44 358 -85 87 -33 100 -41
80 -54 -8 -5 -80 -30 -160 -56 -248 -80 -428 -140 -609 -203 -106 -37 -171
-56 -168 -47 3 7 19 60 37 117 50 165 109 350 114 358 6 9 163 -4 348 -30z"/>
<path d="M4654 1609 c-23 -26 -9 -53 30 -57 50 -6 78 46 37 68 -29 15 -46 12
-67 -11z"/>
<path d="M5730 1611 c-5 -11 -7 -27 -4 -35 8 -21 52 -32 73 -19 21 13 27 53 9
64 -24 16 -67 10 -78 -10z"/>
<path d="M3562 1581 c70 -14 68 -7 68 -276 0 -269 2 -262 -68 -276 -22 -4 24
-7 113 -7 92 0 135 3 112 8 -21 4 -43 12 -50 19 -7 7 -13 55 -15 125 l-4 114
90 -6 c81 -4 95 -2 145 21 103 47 125 161 46 234 -48 44 -98 53 -293 52 -104
-1 -165 -4 -144 -8z m309 -37 c41 -20 72 -91 63 -139 -12 -68 -87 -113 -170
-100 l-44 6 0 125 0 124 60 0 c36 0 74 -7 91 -16z"/>
<path d="M5475 1519 c-10 -30 -74 -99 -105 -112 -25 -11 -24 -11 13 -15 l37
-3 0 -143 c0 -79 5 -157 11 -174 21 -62 115 -68 164 -10 28 33 26 51 -3 25
-25 -23 -69 -22 -82 2 -5 11 -10 83 -10 160 l0 141 55 0 c30 0 55 5 55 10 0 6
-25 10 -55 10 l-55 0 0 65 c0 64 -12 85 -25 44z"/>
<path d="M5740 1409 c-86 -30 -89 -32 -50 -38 l35 -6 3 -149 c3 -159 -1 -172
-46 -179 -15 -2 25 -4 88 -5 63 0 104 3 90 7 -43 12 -50 42 -50 224 0 92 -3
167 -7 166 -5 0 -33 -9 -63 -20z"/>
<path d="M5993 1407 c-73 -26 -86 -36 -44 -35 17 1 35 -2 39 -6 4 -4 8 -68 10
-142 4 -147 -5 -178 -50 -187 -13 -2 29 -4 92 -4 63 0 104 2 90 4 -47 9 -50
17 -50 159 l0 133 31 22 c17 12 50 24 72 26 34 4 46 1 62 -17 17 -19 20 -39
23 -152 4 -140 -3 -162 -52 -171 -11 -2 31 -5 94 -5 93 0 109 2 85 10 -16 6
-33 16 -37 22 -4 6 -8 70 -8 141 0 153 -13 191 -73 214 -49 18 -97 8 -152 -34
l-45 -35 0 40 c0 46 -2 47 -87 17z"/>
<path d="M6595 1418 c-71 -25 -116 -101 -96 -160 14 -39 49 -78 70 -78 9 0 -1
-16 -27 -43 -48 -48 -52 -68 -20 -89 l23 -15 -43 -47 c-52 -57 -53 -83 -1
-109 160 -78 418 -1 407 121 -6 66 -69 90 -239 91 -101 1 -121 13 -89 53 17
22 25 25 70 20 111 -10 200 47 200 129 0 22 -5 49 -10 60 -10 17 -7 19 35 19
33 0 45 4 45 15 0 12 -13 15 -57 15 -32 0 -76 7 -98 15 -46 16 -127 18 -170 3z
m133 -30 c64 -69 52 -187 -21 -206 -17 -4 -42 -6 -55 -4 -60 12 -96 149 -52
205 29 36 96 39 128 5z m130 -384 c29 -19 28 -38 -4 -68 -38 -35 -102 -50
-187 -43 -121 9 -157 40 -122 107 l17 32 136 -7 c91 -5 145 -12 160 -21z"/>
<path d="M4228 1408 c-37 -10 -88 -57 -88 -82 0 -7 9 -21 19 -30 27 -24 61 -6
61 32 0 16 10 39 21 51 18 19 29 22 62 18 51 -7 68 -25 74 -79 l5 -44 -76 -23
c-128 -39 -183 -87 -178 -154 5 -81 131 -109 210 -46 32 25 37 24 50 -6 9 -19
19 -25 42 -25 34 0 79 20 100 45 19 22 5 30 -21 11 -41 -28 -49 -7 -49 135 0
74 -5 139 -11 153 -22 48 -127 69 -221 44z m152 -233 l0 -75 -40 -20 c-50 -25
-80 -25 -108 0 -35 33 -30 83 11 114 32 25 98 54 125 55 8 1 12 -20 12 -74z"/>
<path d="M4643 1399 c-61 -19 -88 -41 -39 -32 40 8 47 -21 44 -174 l-3 -138
-35 -17 -35 -18 115 1 c101 1 112 2 87 13 -16 7 -33 19 -38 27 -5 8 -9 92 -9
187 0 131 -3 172 -12 171 -7 0 -41 -9 -75 -20z"/>
<path d="M4902 1401 c-63 -22 -75 -31 -40 -31 44 0 49 -17 46 -171 -3 -138 -4
-144 -26 -155 -43 -21 -35 -23 72 -21 58 1 106 5 106 10 0 4 -11 7 -25 7 -37
0 -45 27 -45 159 l0 120 37 26 c26 17 51 25 80 25 65 0 73 -18 73 -176 0 -137
-3 -148 -45 -156 -45 -8 14 -13 105 -7 52 3 83 6 67 7 -39 3 -47 32 -47 171 0
135 -10 176 -51 196 -57 30 -131 13 -191 -43 l-28 -26 0 42 c0 49 -6 50 -88
23z"/>
<path d="M6347 824 c-13 -13 -7 -24 14 -24 11 0 19 5 17 12 -5 14 -22 21 -31
12z"/>
<path d="M4130 810 c-10 -6 -11 -10 -2 -10 7 0 12 -14 12 -35 0 -33 -1 -34
-30 -29 -44 9 -90 -14 -106 -52 -26 -61 9 -105 83 -103 l38 1 -32 9 c-82 24
-83 139 -1 139 38 0 50 -22 47 -84 -1 -31 0 -59 4 -62 3 -4 19 -3 34 1 24 6
25 8 10 16 -14 9 -17 26 -17 114 0 108 -4 118 -40 95z"/>
<path d="M5020 810 c-10 -6 -11 -10 -2 -10 9 0 12 -28 12 -104 0 -74 -4 -106
-12 -109 -7 -3 7 -5 32 -5 25 0 39 2 33 5 -9 3 -13 37 -13 119 0 102 -2 114
-17 114 -10 0 -25 -5 -33 -10z"/>
<path d="M5150 810 c-11 -7 -11 -10 -2 -10 10 0 13 -24 10 -110 l-3 -110 35 1
c19 0 29 3 23 6 -9 3 -13 37 -13 119 0 102 -2 114 -17 114 -10 0 -25 -5 -33
-10z"/>
<path d="M4373 792 c10 -10 17 -23 17 -28 0 -12 84 -183 90 -184 3 0 21 32 41
71 l35 70 34 -70 c18 -39 37 -71 40 -71 7 0 90 172 90 186 0 4 7 16 17 26 15
17 15 18 -5 18 -16 0 -22 -6 -22 -22 -1 -13 -16 -52 -35 -88 l-33 -65 -36 75
c-20 41 -34 81 -31 87 3 9 -7 13 -32 13 -34 0 -35 -1 -20 -17 24 -28 24 -46
-2 -101 -22 -48 -41 -67 -41 -42 0 5 -14 39 -31 75 -17 36 -28 69 -24 75 4 6
-8 10 -31 10 -35 0 -36 -1 -21 -18z"/>
<path d="M3583 730 c-13 -5 -23 -16 -23 -25 0 -22 27 -18 33 5 9 34 77 21 77
-15 0 -7 -18 -17 -39 -24 -57 -17 -85 -42 -77 -69 6 -17 15 -22 45 -22 20 0
43 6 50 13 11 10 14 10 18 0 6 -15 53 -18 53 -3 0 6 -4 10 -10 10 -6 0 -10 27
-10 60 0 48 -4 61 -19 70 -24 12 -68 12 -98 0z m87 -88 c0 -31 -36 -57 -65
-45 -23 8 -14 45 15 60 38 19 50 16 50 -15z"/>
<path d="M3775 730 c-11 -5 -14 -9 -7 -9 10 -1 13 -18 10 -71 l-3 -70 29 0
c24 0 26 2 16 15 -7 8 -11 37 -10 67 4 85 4 85 -35 68z"/>
<path d="M3853 730 c-32 -13 -29 -17 8 -12 20 3 34 0 40 -9 12 -19 11 -86 -1
-110 -9 -17 -7 -19 17 -19 l28 0 -5 70 c-6 87 -26 105 -87 80z"/>
<path d="M4818 729 c-10 -5 -18 -17 -18 -24 0 -23 31 -18 37 6 8 29 67 23 71
-8 2 -14 -3 -23 -15 -26 -17 -4 -17 -5 0 -6 15 -1 18 -8 15 -37 -3 -41 17 -62
48 -50 18 7 18 8 2 17 -14 8 -18 23 -18 68 0 44 -4 60 -16 65 -24 9 -87 7
-106 -5z"/>
<path d="M5289 711 c-31 -32 -35 -50 -17 -84 17 -33 39 -46 78 -47 36 0 80 23
80 41 0 6 -10 3 -22 -5 -64 -45 -135 25 -98 95 15 27 63 25 83 -3 12 -19 17
-21 29 -10 19 19 -15 42 -65 42 -29 0 -45 -7 -68 -29z"/>
<path d="M5499 711 c-16 -16 -29 -39 -29 -51 0 -12 13 -35 29 -51 41 -41 101
-41 142 0 60 61 19 131 -76 131 -27 0 -44 -8 -66 -29z m115 -3 c19 -27 21 -89
4 -106 -21 -21 -65 -14 -87 14 -23 29 -27 64 -11 95 15 28 74 26 94 -3z"/>
<path d="M5712 729 c9 -5 34 -41 55 -79 21 -39 40 -70 43 -70 3 0 23 31 44 70
20 38 45 74 54 80 14 8 12 9 -10 10 -20 0 -28 -5 -28 -17 -1 -10 -11 -38 -24
-62 l-23 -44 -28 46 c-15 26 -24 54 -21 62 4 12 -4 15 -37 15 -33 -1 -38 -3
-25 -11z"/>
<path d="M5983 728 c-28 -14 -45 -61 -33 -92 19 -52 92 -73 138 -40 31 22 27
36 -5 19 -42 -22 -103 6 -103 47 0 16 9 18 70 18 74 0 83 7 50 40 -22 22 -80
26 -117 8z m87 -18 c10 -19 8 -20 -45 -20 -30 0 -55 2 -55 4 0 3 7 12 16 20
22 23 71 20 84 -4z"/>
<path d="M6169 733 c0 -5 0 -37 1 -72 1 -44 -3 -67 -12 -72 -8 -5 6 -9 37 -9
39 1 46 3 33 11 -15 8 -18 24 -18 79 0 63 -2 70 -20 70 -11 0 -20 -3 -21 -7z"/>
<path d="M6235 730 c-3 -5 3 -10 14 -10 12 0 24 0 28 -1 4 0 9 4 11 10 5 14
-45 15 -53 1z"/>
<path d="M6339 733 c0 -5 0 -37 1 -72 1 -44 -3 -67 -12 -72 -8 -6 -1 -9 22 -9
l35 0 -3 80 c-3 71 -6 80 -23 80 -10 0 -19 -3 -20 -7z"/>
<path d="M6459 733 c0 -5 0 -37 1 -72 1 -44 -3 -67 -12 -72 -8 -6 1 -9 25 -9
35 0 37 1 27 21 -7 11 -11 42 -10 67 2 26 2 53 1 60 -1 13 -30 17 -32 5z"/>
<path d="M6524 729 c-4 -7 0 -9 14 -5 30 10 52 -18 52 -65 0 -22 -5 -49 -10
-60 -10 -17 -7 -19 27 -18 21 0 32 3 26 6 -9 3 -13 26 -13 67 0 35 -5 67 -12
74 -15 15 -75 16 -84 1z"/>
<path d="M6707 722 c-21 -23 -22 -46 -1 -66 14 -14 14 -18 0 -31 -12 -12 -13
-20 -5 -33 9 -14 23 -16 76 -14 71 4 95 -7 73 -33 -8 -10 -30 -15 -69 -15 -59
0 -75 6 -83 30 -5 12 -7 11 -13 -4 -12 -28 19 -46 77 -46 76 0 136 41 108 75
-5 7 -40 15 -76 18 -76 7 -87 13 -61 32 12 8 14 15 8 20 -15 9 -14 72 2 78 8
4 6 6 -4 6 -9 1 -23 -7 -32 -17z"/>
<path d="M6798 729 c6 -7 12 -27 12 -45 0 -18 -6 -35 -12 -37 -8 -4 -7 -6 4
-6 26 -1 50 29 45 56 -3 18 0 23 16 23 32 0 16 7 -33 14 -36 6 -43 5 -32 -5z"/>
<path d="M2206 688 c-18 -25 -22 -83 -6 -93 27 -17 76 50 68 92 -5 27 -43 28
-62 1z"/>
<path d="M3356 688 c-37 -57 -23 -113 22 -89 23 12 45 61 40 88 -5 28 -44 28
-62 1z"/>
<path d="M4823 650 c-35 -21 -41 -38 -21 -58 15 -15 74 -16 83 -2 4 6 -5 10
-20 10 -36 0 -44 28 -16 52 31 24 14 23 -26 -2z"/>
</g>
</svg>
